# xmcd
#
# Track frame offsets:
#	150
#	15196
#	35600
#	55172
#	72163
#	90932
#	115011
#	133367
#	148884
#	176369
#
# Disc length: 2636 seconds
#
# Revision: 1
# Processed by: cddbd v1.5PL3 Copyright (c) Steve Scherf et al.
# Submitted via: audiograbber 1.80.04
#
DISCID=800a4a0a
DTITLE=Kurt South - Loadad
DYEAR=1900
DGENRE=Country
TTITLE0=Drive so Far
TTITLE1=Shotgun
TTITLE2=Gulf Coast Wind
TTITLE3=Looking at You
TTITLE4=On the Radio
TTITLE5=Cumberland
TTITLE6=Pawn Shop Guitar
TTITLE7=Last Saving Grace
TTITLE8=Colorado
TTITLE9=Hope You're Happy
EXTD=
EXTT0=
EXTT1=
EXTT2=
EXTT3=
EXTT4=
EXTT5=
EXTT6=
EXTT7=
EXTT8=
EXTT9=
PLAYORDER=
